<?xml version="1.0" standalone="no"?>
<!DOCTYPE svg PUBLIC "-//W3C//DTD SVG 20010904//EN"
 "http://www.w3.org/TR/2001/REC-SVG-20010904/DTD/svg10.dtd">
<svg version="1.0" xmlns="http://www.w3.org/2000/svg"
 width="479.000000pt" height="315.000000pt" viewBox="0 0 479.000000 315.000000"
 preserveAspectRatio="xMidYMid meet">

<g transform="translate(0.000000,315.000000) scale(0.100000,-0.100000)"
fill="#000000" stroke="none">
<path d="M250 1678 c0 -1481 -6 -1376 78 -1469 56 -63 141 -104 266 -129 94
-19 142 -20 1240 -20 l1141 0 65 38 c36 20 101 73 146 118 110 110 172 236
218 445 31 137 37 311 35 990 -1 372 1 682 5 688 6 8 38 10 114 5 59 -3 109
-8 112 -11 3 -2 8 -487 11 -1076 4 -590 7 -1100 8 -1134 l1 -63 410 0 c321 0
410 3 411 13 2 52 -3 1623 -7 2062 -6 596 -8 620 -62 699 -37 53 -110 102
-196 129 l-71 22 -1185 0 c-799 -1 -1199 -4 -1227 -11 -43 -11 -153 -85 -188
-125 -103 -122 -139 -184 -183 -315 -16 -49 -35 -123 -42 -164 -7 -41 -16 -95
-21 -120 -5 -25 -12 -378 -14 -785 -4 -566 -8 -741 -18 -747 -21 -13 -205 -10
-214 5 -7 11 -16 527 -11 662 1 33 1 202 0 375 -1 173 -1 333 -1 355 2 41 1
227 0 643 l-1 232 -410 0 -410 0 0 -1312z m2364 644 c3 -5 6 -292 6 -638 2
-702 1 -711 -66 -831 -57 -102 -59 -103 -251 -103 l-164 0 3 653 3 652 24 67
c13 36 37 82 53 102 30 37 108 83 163 97 42 10 223 11 229 1z m-1708 -210 c-3
-3 -25 -6 -48 -8 -79 -5 -297 -51 -312 -65 -6 -5 -14 -9 -19 -9 -24 0 56 51
94 60 24 5 62 14 84 19 41 10 210 12 201 3z"/>
</g>
</svg>
