<?xml version="1.0" encoding="UTF-8" standalone="no"?>
<svg
   version="1.0"
   width="480pt"
   height="250pt"
   viewBox="0 0 480 250"
   preserveAspectRatio="xMidYMid"
   id="svg4"
   sodipodi:docname="Watermatex_Logo.svg"
   inkscape:version="1.2.2 (b0a84865, 2022-12-01)"
   xmlns:inkscape="http://www.inkscape.org/namespaces/inkscape"
   xmlns:sodipodi="http://sodipodi.sourceforge.net/DTD/sodipodi-0.dtd"
   xmlns="http://www.w3.org/2000/svg"
   xmlns:svg="http://www.w3.org/2000/svg">
  <defs
     id="defs8" />
  <sodipodi:namedview
     id="namedview6"
     pagecolor="#ffffff"
     bordercolor="#000000"
     borderopacity="0.25"
     inkscape:showpageshadow="2"
     inkscape:pageopacity="0"
     inkscape:pagecheckerboard="0"
     inkscape:deskcolor="#d1d1d1"
     inkscape:document-units="pt"
     showgrid="false"
     inkscape:zoom="0.8325416"
     inkscape:cx="128.52211"
     inkscape:cy="227.61625"
     inkscape:window-width="1773"
     inkscape:window-height="1009"
     inkscape:window-x="0"
     inkscape:window-y="44"
     inkscape:window-maximized="0"
     inkscape:current-layer="svg4" />
  <!--<g transform="translate(0.000000,315.000000) scale(0.100000,-0.100000)"
fill="#000000" stroke="none">-->
  <path
     d="M 0.37976496,138.6047 C 0.37976496,12.233466 -0.29576855,21.192918 9.1607816,13.25745 15.46518,7.8817639 25.034256,4.383299 39.106555,2.2500996 49.688827,0.62885584 55.092539,0.54348322 178.70308,0.54348322 h 128.45128 l 7.31759,3.24248548 c 4.05281,1.7065451 11.3704,6.2289933 16.43639,10.0687413 12.38351,9.386107 19.36336,20.137479 24.54197,37.971085 3.48987,11.689979 4.16533,26.537167 3.94021,84.475035 -0.11255,31.74209 0.11255,58.19386 0.56285,58.7059 0.67555,0.68255 4.27804,0.85322 12.83392,0.42657 6.64212,-0.25598 12.27098,-0.68263 12.60871,-0.93861 0.33773,-0.17061 0.90066,-41.55486 1.23839,-91.81325 0.45025,-50.3437 0.78798,-93.8610651 0.90059,-96.7622709 l 0.11254,-5.37568588 h 46.15689 c 36.13749,0 46.15699,0.25597735 46.2695,1.10928598 0.22521,4.4370759 -0.33772,138.4878008 -0.78805,175.9469308 -0.67546,50.85566 -0.90059,52.90355 -6.97977,59.6445 -4.16544,4.52239 -12.3836,8.70347 -22.06527,11.00736 l -7.99304,1.87722 H 308.84309 c -89.94979,-0.0852 -134.98088,-0.34135 -138.13304,-0.93861 -4.84086,-0.93861 -17.22446,-7.25291 -21.16467,-10.66609 -11.59553,-10.41002 -15.64834,-15.70041 -20.60174,-26.87834 -1.80127,-4.1811 -3.94023,-10.49539 -4.72829,-13.99387 -0.78805,-3.49845 -1.80123,-8.10621 -2.36411,-10.2394 -0.5629,-2.13319 -1.35098,-32.25412 -1.57609,-66.98273 -0.45035,-48.295783 -0.90059,-63.228255 -2.02637,-63.74022 -2.36419,-1.109287 -23.078537,-0.853304 -24.091712,0.426648 -0.788064,0.938622 -1.801249,44.968012 -1.238315,56.487322 0.112544,2.81584 0.112544,17.23634 0,31.99813 -0.112545,14.76179 -0.112545,28.41431 -0.112545,30.29152 0.225131,3.49846 0.112545,19.36955 0,54.86609 l -0.112556,19.7962 H 46.536663 0.37976496 Z M 266.5138,193.55607 c 0.33774,-0.42657 0.67547,-24.91583 0.67547,-54.43942 0.22513,-59.900463 0.11255,-60.668401 -7.43019,-70.907816 -6.41692,-8.703491 -6.64205,-8.788798 -28.25698,-8.788798 h -18.46276 l 0.33773,55.719404 0.33772,55.634 2.70182,5.71697 c 1.46353,3.07187 4.16543,6.99692 5.96667,8.70354 3.37729,3.15712 12.15839,7.08224 18.35017,8.27683 4.72828,0.8533 25.10489,0.93861 25.78035,0.0852 z"
     id="path2"
     sodipodi:nodetypes="sccsccsccccccccscccccccccssccccscccccssccsccccccs"
     style="fill:#1d476d;fill-opacity:1;stroke-width:0.0980115" />
</svg>
